<svg width="287" height="264" viewBox="0 0 287 264" fill="none" xmlns="http://www.w3.org/2000/svg">
<path d="M43.1325 94.5319V101.655C43.1325 110.627 47.2196 114.796 55.043 114.796H64.9099C74.2364 114.796 80.5818 122.374 80.5818 130.441V138.73C80.5818 147.702 76.5126 153.108 67 153.108C65.3859 153.108 57.4014 153.108 55.5619 153.108C45.5554 153.108 40.341 148.538 40.341 139.202C40.341 137.822 40.341 133.784 40.341 131.485C40.341 124.122 35.0478 119.291 28.5987 119.291C26.5266 119.291 14.0972 119.291 11.5669 119.291C3.0492 119.291 0.97704 125.041 0.97704 131.485V146.679C0.97704 154.732 5.81208 157.492 12.0286 157.492H22.5182C34.3643 157.492 40.0547 162.685 40.0547 170.973V176.698C40.0547 186.117 45.4158 189.686 53.9443 189.686H71.5344C80.2418 189.686 84.497 185.095 84.497 177.246C84.497 174.024 84.497 173.584 84.497 170.823C84.497 160.013 90.4952 156.563 102.008 156.563H114.119C120.797 156.563 123.872 152.422 123.872 146.901C123.872 141.383 123.872 131.95 123.872 124.587C123.872 117.228 119.727 113.777 111.671 113.777C108.214 113.777 101.307 113.777 97.1626 113.777C88.5054 113.777 80.7428 107.237 80.7428 95.147C80.7428 91.235 80.7428 91.9358 80.7428 88.0238C80.7428 79.052 76.6557 74.8825 68.8288 74.8825C66.2949 74.8825 61.4957 74.8825 58.9618 74.8825C49.6353 74.8825 43.29 67.3088 43.29 59.2416C43.29 57.8613 43.29 53.4808 43.29 50.9527C43.29 41.9808 47.3627 36.5741 56.8753 36.5741H68.3098C78.3163 36.5741 83.5343 41.1441 83.5343 50.4807V58.1974C83.5343 65.5602 88.8274 70.3876 95.2766 70.3876H112.305C120.823 70.3876 122.895 64.6376 122.895 58.1974C122.895 55.8946 122.895 46.4542 122.895 43.0035C122.895 34.9542 118.06 32.1936 111.843 32.1936C108.851 32.1936 104.578 32.1936 101.353 32.1936C89.5075 32.1936 83.817 27.0015 83.817 18.7126C83.817 15.952 83.817 17.6648 83.817 13.2915C83.817 3.87625 78.7172 0 70.1887 0C63.5141 0 54.6385 0 52.3373 0C43.63 0 39.3747 4.59143 39.3747 12.4441V18.8628C39.3747 29.6726 33.3765 33.1234 21.8633 33.1234C18.6423 33.1234 11.3593 33.1234 9.74884 33.1234C3.07426 33.1234 0 37.2642 0 42.7854C0 48.3065 0 57.7361 0 65.0989C0 72.4616 4.14075 75.9123 12.2039 75.9123H26.7055C35.3699 75.9016 43.1325 82.4419 43.1325 94.5319V94.5319Z" transform="translate(123.27 36.7243)" fill="#8A6FE8"/>
<path d="M22.2212 34.7969C29.1821 34.7969 34.8224 29.1577 34.8224 22.2062V12.5942C34.8224 5.63916 29.1821 0 22.2212 0H12.6012C5.64389 0 0 5.63916 0 12.5942V22.2062C0 29.1613 5.64389 34.7969 12.6012 34.7969H22.2212Z" transform="translate(252.178 115.898)" fill="#8A6FE8"/>
<path d="M97.1626 69.8405H107.928C115.984 69.8405 120.128 66.3898 120.128 59.0306C120.128 56.9959 120.128 53.134 120.128 51.9718C120.533 40.5505 128.088 35.3154 136.512 35.3154H147.277C155.341 35.3154 159.481 31.8647 159.481 24.5055C159.481 17.1463 159.481 15.1832 159.481 9.66202C159.481 4.14087 156.411 0 149.733 0C148.122 0 132.572 0 129.351 0C122.744 0 119.935 3.05737 119.935 9.94809V18.6518C119.935 26.5008 113.919 33.86 105.008 34.2569C99.6893 34.2569 92.1343 34.2569 89.9977 34.2569C83.3947 34.2569 80.5817 37.3143 80.5817 44.205V53.1733C80.5817 61.2405 74.2436 68.8178 64.9099 68.8178C62.3796 68.8178 57.5768 68.8178 55.043 68.8178C47.2124 68.8178 43.1289 72.9837 43.1289 81.9556V92.9371C43.1289 105.027 35.3699 111.567 26.7091 111.567C22.5648 111.567 15.6575 111.567 12.2004 111.567C4.14433 111.567 0 115.018 0 122.377V146.572C0 153.934 4.14433 157.382 12.2004 157.382H26.7091C35.3699 157.382 43.1289 161.133 43.1289 173.226V181.851C43.1289 190.823 47.216 194.989 55.043 194.989H64.9099C74.24 194.989 80.5817 202.566 80.5817 210.634V219.713C80.5817 226.603 83.3947 229.661 89.9977 229.661H105.076L105 229.747C113.915 230.14 119.928 237.503 119.928 245.352V254.052C119.928 260.943 122.737 264 129.344 264H149.722C156.4 264 159.474 259.859 159.474 254.338C159.474 248.817 159.474 246.857 159.474 239.495C159.474 232.132 155.33 228.681 147.274 228.681C143.82 228.681 140.649 228.681 136.505 228.681C128.102 228.681 120.568 223.471 120.128 212.114C120.128 210.759 120.128 207.208 120.128 204.773C120.128 197.41 115.984 193.963 107.928 193.963C104.471 193.963 101.307 193.963 97.1626 193.963C88.4982 193.963 80.7356 187.426 80.7356 175.336C80.7356 173.494 80.7356 172.951 80.7356 169.497C80.7356 160.525 84.8263 156.359 92.6533 156.359H102.517C111.847 156.359 118.192 148.782 118.192 140.714C118.192 139.803 118.192 129.143 118.192 128.231C118.192 120.164 111.85 112.587 102.517 112.587C99.9864 112.587 95.1871 112.587 92.6533 112.587C84.8227 112.587 80.7356 108.417 80.7356 99.4488C80.7356 95.998 80.7356 89.2754 80.7356 87.4338C80.7356 75.3473 88.4982 69.8405 97.1626 69.8405V69.8405Z" fill="#8A6FE8"/>
</svg>
